<svg width="19" height="22" viewBox="0 0 19 22" fill="none" xmlns="http://www.w3.org/2000/svg">
<path d="M9.19999 0.0204788C4.41999 0.330479 0.799988 4.52048 0.799988 9.3105V16.0005C0.799988 17.6605 2.13999 19.0005 3.79999 19.0005H4.79999C5.89999 19.0005 6.79999 18.1005 6.79999 17.0005V13.0005C6.79999 11.9005 5.89999 11.0005 4.79999 11.0005H2.79999V9.2905C2.79999 5.45048 5.75999 2.11048 9.58999 2.00048C13.56 1.89048 16.8 5.06048 16.8 9.0005V11.0005H14.8C13.7 11.0005 12.8 11.9005 12.8 13.0005V17.0005C12.8 18.1005 13.7 19.0005 14.8 19.0005H16.8V20.0005H10.8C10.25 20.0005 9.79999 20.4505 9.79999 21.0005C9.79999 21.5505 10.25 22.0005 10.8 22.0005H15.8C17.46 22.0005 18.8 20.6605 18.8 19.0005V9.0005C18.8 3.83048 14.44 -0.319522 9.19999 0.0204788Z" fill="#FFD333"/>
</svg>
