<svg width="23" height="18" viewBox="0 0 23 18" fill="none" xmlns="http://www.w3.org/2000/svg">
<path fill-rule="evenodd" clip-rule="evenodd" d="M22.0492 2.52035V6.84035C20.8612 6.84035 19.8892 7.8124 19.8892 9.0004C19.8892 10.1884 20.8612 11.1604 22.0492 11.1604V15.4804C22.0492 16.6684 21.0772 17.6404 19.8892 17.6404H2.60922C1.42122 17.6404 0.449221 16.6684 0.449221 15.4804V11.1604C1.64802 11.1604 2.60922 10.1884 2.60922 9.0004C2.60922 7.8124 1.64802 6.84035 0.460021 6.84035V2.52035C0.460021 1.32155 1.42122 0.360352 2.60922 0.360352H19.8892C21.0772 0.360352 22.0492 1.32155 22.0492 2.52035ZM6.87126 8.4351C7.26706 8.6571 7.7063 8.7681 8.18898 8.7681C8.66201 8.7681 9.09159 8.6571 9.4777 8.4351C9.8735 8.2131 10.1825 7.9138 10.4045 7.5373C10.6265 7.1608 10.7375 6.7457 10.7375 6.29198C10.7375 5.83826 10.6265 5.42315 10.4045 5.04666C10.1825 4.67017 9.8735 4.37091 9.4777 4.14887C9.09159 3.92684 8.66201 3.81582 8.18898 3.81582C7.7063 3.81582 7.26706 3.92684 6.87126 4.14887C6.48511 4.37091 6.18103 4.67017 5.95899 5.04666C5.73696 5.42315 5.62594 5.83826 5.62594 6.29198C5.62594 6.7457 5.73696 7.1608 5.95899 7.5373C6.18103 7.9138 6.48511 8.2131 6.87126 8.4351ZM13.8943 3.81582L7.46496 13.4164L8.60891 14.1838L15.0382 4.58329L13.8943 3.81582ZM8.89852 7.0594C8.7151 7.2525 8.47859 7.3491 8.18898 7.3491C7.90903 7.3491 7.67251 7.2525 7.47944 7.0594C7.28637 6.85672 7.18983 6.6009 7.18983 6.29198C7.18983 5.98306 7.28637 5.73207 7.47944 5.539C7.67251 5.33627 7.90903 5.23491 8.18898 5.23491C8.47859 5.23491 8.7151 5.33144 8.89852 5.52452C9.09159 5.71759 9.18813 5.97341 9.18813 6.29198C9.18813 6.61055 9.09159 6.86637 8.89852 7.0594ZM13.011 13.8508C13.4068 14.0728 13.846 14.1838 14.3287 14.1838C14.8017 14.1838 15.2313 14.0728 15.6174 13.8508C16.0132 13.6287 16.3222 13.3295 16.5442 12.953C16.7662 12.5765 16.8772 12.1614 16.8772 11.7077C16.8772 11.2539 16.7662 10.8388 16.5442 10.4623C16.3222 10.0859 16.0132 9.7866 15.6174 9.5646C15.2313 9.3425 14.8017 9.2315 14.3287 9.2315C13.846 9.2315 13.4068 9.3425 13.011 9.5646C12.6248 9.7866 12.3207 10.0859 12.0987 10.4623C11.8767 10.8388 11.7657 11.2539 11.7657 11.7077C11.7657 12.1614 11.8767 12.5765 12.0987 12.953C12.3207 13.3295 12.6248 13.6287 13.011 13.8508ZM15.0382 12.4751C14.8548 12.6682 14.6183 12.7647 14.3287 12.7647C14.0487 12.7647 13.8122 12.6682 13.6191 12.4751C13.4261 12.2724 13.3295 12.0166 13.3295 11.7077C13.3295 11.3988 13.4261 11.1478 13.6191 10.9547C13.8122 10.752 14.0487 10.6506 14.3287 10.6506C14.6183 10.6506 14.8548 10.7471 15.0382 10.9402C15.2313 11.1333 15.3278 11.3891 15.3278 11.7077C15.3278 12.0262 15.2313 12.2821 15.0382 12.4751Z" fill="#FFD333"/>
</svg>
