<svg width="21" height="20" viewBox="0 0 21 20" fill="none" xmlns="http://www.w3.org/2000/svg">
<path d="M6.28005 12.75C6.51338 13.55 6.87588 14.1958 7.36755 14.6875C7.85922 15.1792 8.49675 15.5167 9.28005 15.7V16.125C9.28005 16.3583 9.36755 16.5625 9.54255 16.7375C9.71755 16.9125 9.92175 17 10.1551 17C10.3884 17 10.5926 16.9125 10.7676 16.7375C10.9426 16.5625 11.0301 16.3583 11.0301 16.125V15.75C11.8634 15.6 12.5801 15.275 13.1801 14.775C13.7801 14.275 14.0801 13.5333 14.0801 12.55C14.0801 11.85 13.8801 11.2083 13.4801 10.625C13.0801 10.0417 12.2801 9.5333 11.0801 9.1C10.0801 8.7667 9.38835 8.475 9.00505 8.225C8.62175 7.975 8.43005 7.63333 8.43005 7.2C8.43005 6.76667 8.58425 6.425 8.89255 6.175C9.20085 5.925 9.64675 5.8 10.2301 5.8C10.7634 5.8 11.1801 5.92917 11.4801 6.1875C11.7801 6.44583 11.9968 6.76667 12.1301 7.15L13.7301 6.5C13.5468 5.91667 13.2093 5.40833 12.7176 4.975C12.2259 4.54167 11.6801 4.3 11.0801 4.25V3.875C11.0801 3.64167 10.9926 3.4375 10.8176 3.2625C10.6426 3.0875 10.4384 3 10.2051 3C9.97175 3 9.76755 3.0875 9.59255 3.2625C9.41755 3.4375 9.33005 3.64167 9.33005 3.875V4.25C8.49675 4.43333 7.84672 4.8 7.38005 5.35C6.91338 5.9 6.68005 6.51667 6.68005 7.2C6.68005 7.98333 6.90922 8.6167 7.36755 9.1C7.82588 9.5833 8.54675 10 9.53005 10.35C10.5801 10.7333 11.3093 11.075 11.7176 11.375C12.1259 11.675 12.3301 12.0667 12.3301 12.55C12.3301 13.1 12.1343 13.5042 11.7426 13.7625C11.3509 14.0208 10.8801 14.15 10.3301 14.15C9.78005 14.15 9.29255 13.9792 8.86755 13.6375C8.44255 13.2958 8.13005 12.7833 7.93005 12.1L6.28005 12.75ZM10.1801 20C8.79675 20 7.49672 19.7375 6.28005 19.2125C5.06338 18.6875 4.00505 17.975 3.10505 17.075C2.20505 16.175 1.49255 15.1167 0.967554 13.9C0.442554 12.6833 0.180054 11.3833 0.180054 10C0.180054 8.6167 0.442554 7.31667 0.967554 6.1C1.49255 4.88333 2.20505 3.825 3.10505 2.925C4.00505 2.025 5.06338 1.3125 6.28005 0.7875C7.49672 0.2625 8.79675 0 10.1801 0C11.5634 0 12.8634 0.2625 14.0801 0.7875C15.2968 1.3125 16.3551 2.025 17.2551 2.925C18.1551 3.825 18.8676 4.88333 19.3926 6.1C19.9176 7.31667 20.1801 8.6167 20.1801 10C20.1801 11.3833 19.9176 12.6833 19.3926 13.9C18.8676 15.1167 18.1551 16.175 17.2551 17.075C16.3551 17.975 15.2968 18.6875 14.0801 19.2125C12.8634 19.7375 11.5634 20 10.1801 20Z" fill="#FFD333"/>
</svg>
